<?xml version="1.0" standalone="no"?>
<!DOCTYPE svg PUBLIC "-//W3C//DTD SVG 20010904//EN"
 "http://www.w3.org/TR/2001/REC-SVG-20010904/DTD/svg10.dtd">
<svg version="1.0" xmlns="http://www.w3.org/2000/svg"
 width="700.000000pt" height="700.000000pt" viewBox="0 0 700.000000 700.000000"
 preserveAspectRatio="xMidYMid meet">
<metadata>
Created by potrace 1.14, written by Peter Selinger 2001-2017
</metadata>
<g transform="translate(0.000000,700.000000) scale(0.100000,-0.100000)"
fill="#000000" stroke="none">
<path d="M6928 6995 c-2 -2 -47 -6 -101 -10 -54 -3 -106 -8 -115 -10 -9 -1
-48 -6 -85 -10 -37 -3 -76 -8 -85 -10 -9 -1 -44 -6 -77 -10 -67 -8 -76 -9
-155 -19 -57 -8 -93 -13 -145 -22 -52 -9 -79 -13 -125 -19 -25 -4 -63 -10 -85
-15 -22 -5 -58 -11 -80 -14 -23 -4 -52 -9 -65 -11 -14 -3 -36 -7 -50 -10 -14
-3 -36 -7 -50 -10 -14 -3 -41 -8 -60 -11 -102 -18 -471 -102 -655 -150 -115
-30 -219 -57 -230 -59 -12 -3 -48 -14 -80 -25 -33 -11 -60 -20 -60 -19 0 0
-27 -7 -60 -17 -33 -10 -62 -18 -65 -19 -76 -14 -787 -277 -845 -313 -5 -4
-14 -7 -20 -8 -5 -1 -46 -19 -90 -40 -44 -21 -82 -38 -85 -39 -3 0 -68 -32
-145 -70 -118 -59 -220 -114 -455 -247 -80 -46 -353 -232 -461 -315 -180 -137
-312 -253 -464 -407 -375 -379 -645 -809 -804 -1281 -42 -127 -80 -258 -97
-340 -9 -45 -44 -243 -49 -285 -3 -25 -8 -56 -10 -70 -2 -14 -6 -54 -10 -90
-3 -36 -8 -81 -10 -100 -5 -45 -14 -140 -20 -210 -2 -30 -7 -84 -10 -120 -17
-216 -38 -610 -32 -610 3 0 559 554 1236 1230 678 677 1245 1237 1262 1245 40
21 115 27 164 12 24 -7 59 -30 86 -58 38 -37 49 -57 60 -103 11 -50 10 -64 -5
-112 -17 -54 -65 -102 -1826 -1861 -1536 -1534 -1812 -1814 -1836 -1862 -24
-48 -28 -68 -29 -141 0 -73 4 -93 28 -141 32 -67 99 -132 165 -162 36 -16 67
-21 132 -21 140 0 129 -8 598 458 l413 411 97 1 c177 3 566 15 617 19 28 2
106 7 174 10 68 4 142 8 165 10 22 2 82 6 131 10 50 3 106 8 125 10 19 2 67 7
105 10 39 3 84 8 100 10 17 2 64 7 105 10 41 4 82 9 90 10 8 2 44 6 80 9 36 4
88 11 115 16 28 5 66 12 85 15 19 3 42 8 50 10 8 2 31 7 50 10 212 35 571 164
820 293 152 79 371 219 482 306 14 12 41 32 59 46 18 14 45 35 59 47 l25 22
-685 1 -685 2 999 333 c810 269 1003 337 1018 356 66 85 348 518 348 534 0 3
11 23 25 45 14 22 22 40 18 41 -5 0 -254 1 -555 1 l-546 1 727 363 727 363 41
103 c127 316 308 880 358 1112 3 10 9 33 14 50 9 29 48 193 55 232 2 11 9 37
14 59 16 57 44 196 87 420 27 143 25 135 55 320 11 72 23 146 26 165 3 19 8
47 10 63 1 15 8 63 14 107 14 106 16 122 25 210 4 41 9 83 11 94 4 22 17 187
18 236 1 32 -1 34 -31 36 -18 0 -34 0 -35 -1z"/>
</g>
</svg>
