<?xml version="1.0" encoding="UTF-8" standalone="no"?>
<!DOCTYPE svg PUBLIC "-//W3C//DTD SVG 1.1//EN" "http://www.w3.org/Graphics/SVG/1.1/DTD/svg11.dtd">
<svg width="100%" height="100%" viewBox="0 0 27 31" version="1.1" xmlns="http://www.w3.org/2000/svg" xmlns:xlink="http://www.w3.org/1999/xlink" xml:space="preserve" xmlns:serif="http://www.serif.com/" style="fill-rule:evenodd;clip-rule:evenodd;stroke-linejoin:round;stroke-miterlimit:2;">
    <g id="Artboard1" transform="matrix(0.333333,0,0,0.484375,-460,-276.094)">
        <rect x="1380" y="570" width="81" height="64" style="fill:none;"/>
        <g transform="matrix(3,0,0,2.06452,-2835,-635.677)">
            <path d="M1414.5,597.208L1407.3,597.208C1407.31,597.474 1407.42,597.734 1407.62,597.936L1417.77,608.088C1418.21,608.526 1418.92,608.526 1419.36,608.088L1429.38,598.069C1429.61,597.833 1429.72,597.517 1429.69,597.208L1422.5,597.208L1422.5,587C1422.5,585.896 1421.6,585 1420.5,585L1416.5,585C1415.4,585 1414.5,585.896 1414.5,587L1414.5,597.208Z"/>
        </g>
        <g transform="matrix(3,0,0,2.75269,-2835,-1060.97)">
            <path d="M1431,612.75C1431,612.336 1430.55,612 1430,612L1407,612C1406.45,612 1406,612.336 1406,612.75L1406,614.25C1406,614.664 1406.45,615 1407,615L1430,615C1430.55,615 1431,614.664 1431,614.25L1431,612.75Z"/>
        </g>
    </g>
</svg>
