<svg height='300px' width='300px'  fill="#000000" xmlns="http://www.w3.org/2000/svg" xmlns:xlink="http://www.w3.org/1999/xlink" version="1.1" x="0px" y="0px" viewBox="0 0 100 100" style="enable-background:new 0 0 100 100;" xml:space="preserve"><g><g><path d="M69.2,21.5H30.8c-5.1,0-9.2,4.1-9.2,9.2v38.5c0,5.1,4.1,9.2,9.2,9.2h38.5c5.1,0,9.2-4.1,9.2-9.2V30.8    C78.5,25.7,74.3,21.5,69.2,21.5z M30.8,28.5h38.5c1.3,0,2.3,1,2.3,2.3v12.2L64.4,38c-1.4-0.9-3.2-0.8-4.4,0.4L47.7,50.7l-5.9-4.7    c-1.4-1.1-3.5-1-4.7,0.4l-8.6,9.3v-25C28.5,29.5,29.5,28.5,30.8,28.5z M69.2,71.5H30.8c-1.3,0-2.3-1-2.3-2.3V66L40,53.5l5.8,4.6    c1.4,1.1,3.3,1,4.6-0.3l12.5-12.4l8.7,5.9v17.9C71.5,70.5,70.5,71.5,69.2,71.5z"></path><path d="M90.6,19.2l-9.9-9.9C77.9,6.6,74.2,5,70.1,5H14.2C9.1,5,5,9.1,5,14.2v71.5c0,5.1,4.1,9.2,9.2,9.2h71.5    c5.1,0,9.2-4.1,9.2-9.2V29.9C95,25.8,93.4,22.1,90.6,19.2z M88.1,85.8c0,1.3-1,2.3-2.3,2.3H14.2c-1.3,0-2.3-1-2.3-2.3V14.2    c0-1.3,1-2.3,2.3-2.3h55.9c2.2,0,4.2,0.8,5.7,2.4l9.9,9.9c1.5,1.5,2.4,3.6,2.4,5.7V85.8z"></path></g></g></svg>